<svg xmlns="http://www.w3.org/2000/svg" xmlns:xlink="http://www.w3.org/1999/xlink" width="100" zoomAndPan="magnify" viewBox="0 0 75 30.000001" height="40" preserveAspectRatio="xMidYMid meet" version="1.0"><defs><g/><clipPath id="58525dbdc0"><path d="M 9.601562 4.035156 L 23 4.035156 L 23 20.726562 L 9.601562 20.726562 Z M 9.601562 4.035156 " clip-rule="nonzero"/></clipPath><clipPath id="7915ef02a3"><path d="M 19 10 L 25.566406 10 L 25.566406 20.726562 L 19 20.726562 Z M 19 10 " clip-rule="nonzero"/></clipPath><clipPath id="a2fddb8cf9"><path d="M 64 12 L 73.789062 12 L 73.789062 21 L 64 21 Z M 64 12 " clip-rule="nonzero"/></clipPath></defs><g clip-path="url(#58525dbdc0)"><path fill="#ffffff" d="M 12.453125 20.726562 L 15.019531 14.328125 L 17.589844 17.605469 L 21.683594 8.402344 L 22.640625 8.84375 L 22.171875 4.035156 L 18.320312 6.847656 L 19.277344 7.289062 L 16.960938 12.492188 L 14.273438 9.066406 L 9.601562 20.726562 L 12.453125 20.726562 " fill-opacity="1" fill-rule="nonzero"/></g><g clip-path="url(#7915ef02a3)"><path fill="#0e415f" d="M 22.714844 20.726562 L 25.566406 20.726562 L 21.417969 10.375 L 19.027344 15.757812 L 20.148438 14.328125 L 22.714844 20.726562 " fill-opacity="1" fill-rule="nonzero"/></g><g fill="#ffffff" fill-opacity="1"><g transform="translate(1.325943, 20.658469)"><g><path d="M 6.984375 -1.6875 L 6.984375 0 L 0.78125 0 L 0.78125 -7.75 L 6.84375 -7.75 L 6.84375 -6.046875 L 2.9375 -6.046875 L 2.9375 -4.75 L 6.390625 -4.75 L 6.390625 -3.109375 L 2.9375 -3.109375 L 2.9375 -1.6875 Z M 6.984375 -1.6875 "/></g></g></g><g fill="#ffffff" fill-opacity="1"><g transform="translate(9.785029, 20.658469)"><g/></g></g><g fill="#ffffff" fill-opacity="1"><g transform="translate(14.033507, 20.658469)"><g/></g></g><g fill="#ffffff" fill-opacity="1"><g transform="translate(18.281984, 20.658469)"><g/></g></g><g fill="#ffffff" fill-opacity="1"><g transform="translate(22.530462, 20.658469)"><g/></g></g><g fill="#ffffff" fill-opacity="1"><g transform="translate(26.775257, 20.658469)"><g><path d="M 4.3125 -7.75 C 5.007812 -7.75 5.613281 -7.628906 6.125 -7.390625 C 6.644531 -7.160156 7.046875 -6.828125 7.328125 -6.390625 C 7.609375 -5.960938 7.75 -5.457031 7.75 -4.875 C 7.75 -4.289062 7.609375 -3.785156 7.328125 -3.359375 C 7.046875 -2.929688 6.644531 -2.601562 6.125 -2.375 C 5.613281 -2.144531 5.007812 -2.03125 4.3125 -2.03125 L 2.96875 -2.03125 L 2.96875 0 L 0.78125 0 L 0.78125 -7.75 Z M 4.1875 -3.75 C 4.632812 -3.75 4.972656 -3.847656 5.203125 -4.046875 C 5.429688 -4.242188 5.546875 -4.519531 5.546875 -4.875 C 5.546875 -5.238281 5.429688 -5.519531 5.203125 -5.71875 C 4.972656 -5.914062 4.632812 -6.015625 4.1875 -6.015625 L 2.96875 -6.015625 L 2.96875 -3.75 Z M 4.1875 -3.75 "/></g></g></g><g fill="#ffffff" fill-opacity="1"><g transform="translate(35.957653, 20.658469)"><g><path d="M 6.984375 -1.6875 L 6.984375 0 L 0.78125 0 L 0.78125 -7.75 L 6.84375 -7.75 L 6.84375 -6.046875 L 2.9375 -6.046875 L 2.9375 -4.75 L 6.390625 -4.75 L 6.390625 -3.109375 L 2.9375 -3.109375 L 2.9375 -1.6875 Z M 6.984375 -1.6875 "/></g></g></g><g fill="#ffffff" fill-opacity="1"><g transform="translate(44.420981, 20.658469)"><g><path d="M 8.140625 -7.75 L 8.140625 0 L 6.34375 0 L 2.921875 -4.125 L 2.921875 0 L 0.78125 0 L 0.78125 -7.75 L 2.578125 -7.75 L 6 -3.625 L 6 -7.75 Z M 8.140625 -7.75 "/></g></g></g><g fill="#ffffff" fill-opacity="1"><g transform="translate(54.366695, 20.658469)"><g><path d="M 8.140625 -7.75 L 8.140625 0 L 5.953125 0 L 5.953125 -3.015625 L 2.96875 -3.015625 L 2.96875 0 L 0.78125 0 L 0.78125 -7.75 L 2.96875 -7.75 L 2.96875 -4.828125 L 5.953125 -4.828125 L 5.953125 -7.75 Z M 8.140625 -7.75 "/></g></g></g><g clip-path="url(#a2fddb8cf9)"><g fill="#ffffff" fill-opacity="1"><g transform="translate(64.312407, 20.658469)"><g><path d="M 4.671875 0.15625 C 3.859375 0.15625 3.125 -0.015625 2.46875 -0.359375 C 1.820312 -0.710938 1.3125 -1.191406 0.9375 -1.796875 C 0.5625 -2.410156 0.375 -3.101562 0.375 -3.875 C 0.375 -4.632812 0.5625 -5.320312 0.9375 -5.9375 C 1.3125 -6.550781 1.820312 -7.03125 2.46875 -7.375 C 3.125 -7.726562 3.859375 -7.90625 4.671875 -7.90625 C 5.492188 -7.90625 6.226562 -7.726562 6.875 -7.375 C 7.53125 -7.03125 8.046875 -6.550781 8.421875 -5.9375 C 8.796875 -5.320312 8.984375 -4.632812 8.984375 -3.875 C 8.984375 -3.101562 8.796875 -2.410156 8.421875 -1.796875 C 8.046875 -1.191406 7.53125 -0.710938 6.875 -0.359375 C 6.226562 -0.015625 5.492188 0.15625 4.671875 0.15625 Z M 4.671875 -1.65625 C 5.066406 -1.65625 5.421875 -1.75 5.734375 -1.9375 C 6.054688 -2.125 6.304688 -2.382812 6.484375 -2.71875 C 6.671875 -3.050781 6.765625 -3.4375 6.765625 -3.875 C 6.765625 -4.3125 6.671875 -4.695312 6.484375 -5.03125 C 6.304688 -5.363281 6.054688 -5.617188 5.734375 -5.796875 C 5.421875 -5.984375 5.066406 -6.078125 4.671875 -6.078125 C 4.285156 -6.078125 3.929688 -5.984375 3.609375 -5.796875 C 3.296875 -5.617188 3.046875 -5.363281 2.859375 -5.03125 C 2.679688 -4.695312 2.59375 -4.3125 2.59375 -3.875 C 2.59375 -3.4375 2.679688 -3.050781 2.859375 -2.71875 C 3.046875 -2.382812 3.296875 -2.125 3.609375 -1.9375 C 3.929688 -1.75 4.285156 -1.65625 4.671875 -1.65625 Z M 4.671875 -1.65625 "/></g></g></g></g></svg>