<svg xmlns="http://www.w3.org/2000/svg" xmlns:xlink="http://www.w3.org/1999/xlink" width="500" zoomAndPan="magnify" viewBox="0 0 375 374.999991" height="500" preserveAspectRatio="xMidYMid meet" version="1.0"><defs><g/><clipPath id="bfe007e443"><path d="M 83.019531 37.5 L 254 37.5 L 254 252 L 83.019531 252 Z M 83.019531 37.5 " clip-rule="nonzero"/></clipPath><clipPath id="d08684333c"><path d="M 206 119 L 292.269531 119 L 292.269531 252 L 206 252 Z M 206 119 " clip-rule="nonzero"/></clipPath></defs><g clip-path="url(#bfe007e443)"><path fill="#0e415f" d="M 120.421875 251.949219 L 154.027344 169.757812 L 187.734375 211.847656 L 241.359375 93.644531 L 253.898438 99.3125 L 247.792969 37.574219 L 197.273438 73.71875 L 209.816406 79.386719 L 179.5 146.207031 L 144.253906 102.195312 L 83.019531 251.949219 L 120.421875 251.949219 " fill-opacity="1" fill-rule="nonzero"/></g><g clip-path="url(#d08684333c)"><path fill="#1f628e" d="M 254.867188 251.949219 L 292.269531 251.949219 L 237.910156 119.003906 L 206.542969 188.136719 L 221.261719 169.757812 L 254.867188 251.949219 " fill-opacity="1" fill-rule="nonzero"/></g><g fill="#1d4355" fill-opacity="1"><g transform="translate(15.932773, 319.471355)"><g><path d="M 35.84375 -8.671875 L 35.84375 0 L 3.96875 0 L 3.96875 -39.6875 L 35.09375 -39.6875 L 35.09375 -31.015625 L 15.078125 -31.015625 L 15.078125 -24.328125 L 32.71875 -24.328125 L 32.71875 -15.9375 L 15.078125 -15.9375 L 15.078125 -8.671875 Z M 35.84375 -8.671875 "/></g></g></g><g fill="#1d4355" fill-opacity="1"><g transform="translate(59.310029, 319.471355)"><g><path d="M 39.8125 0 L 39.6875 -21.03125 L 29.484375 -3.90625 L 24.5 -3.90625 L 14.34375 -20.46875 L 14.34375 0 L 3.96875 0 L 3.96875 -39.6875 L 13.21875 -39.6875 L 27.15625 -16.78125 L 40.765625 -39.6875 L 50.015625 -39.6875 L 50.125 0 Z M 39.8125 0 "/></g></g></g><g fill="#1d4355" fill-opacity="1"><g transform="translate(118.676467, 319.471355)"><g><path d="M 22.109375 -39.6875 C 25.703125 -39.6875 28.820312 -39.09375 31.46875 -37.90625 C 34.113281 -36.71875 36.15625 -35.015625 37.59375 -32.796875 C 39.03125 -30.585938 39.75 -27.988281 39.75 -25 C 39.75 -22.019531 39.03125 -19.429688 37.59375 -17.234375 C 36.15625 -15.046875 34.113281 -13.351562 31.46875 -12.15625 C 28.820312 -10.96875 25.703125 -10.375 22.109375 -10.375 L 15.203125 -10.375 L 15.203125 0 L 3.96875 0 L 3.96875 -39.6875 Z M 21.4375 -19.21875 C 23.738281 -19.21875 25.472656 -19.71875 26.640625 -20.71875 C 27.816406 -21.726562 28.40625 -23.15625 28.40625 -25 C 28.40625 -26.851562 27.816406 -28.289062 26.640625 -29.3125 C 25.472656 -30.332031 23.738281 -30.84375 21.4375 -30.84375 L 15.203125 -30.84375 L 15.203125 -19.21875 Z M 21.4375 -19.21875 "/></g></g></g><g fill="#1d4355" fill-opacity="1"><g transform="translate(165.739179, 319.471355)"><g><path d="M 35.84375 -8.671875 L 35.84375 0 L 3.96875 0 L 3.96875 -39.6875 L 35.09375 -39.6875 L 35.09375 -31.015625 L 15.078125 -31.015625 L 15.078125 -24.328125 L 32.71875 -24.328125 L 32.71875 -15.9375 L 15.078125 -15.9375 L 15.078125 -8.671875 Z M 35.84375 -8.671875 "/></g></g></g><g fill="#1d4355" fill-opacity="1"><g transform="translate(209.116428, 319.471355)"><g><path d="M 41.734375 -39.6875 L 41.734375 0 L 32.484375 0 L 14.96875 -21.15625 L 14.96875 0 L 3.96875 0 L 3.96875 -39.6875 L 13.21875 -39.6875 L 30.734375 -18.546875 L 30.734375 -39.6875 Z M 41.734375 -39.6875 "/></g></g></g><g fill="#1d4355" fill-opacity="1"><g transform="translate(260.091371, 319.471355)"><g><path d="M 41.734375 -39.6875 L 41.734375 0 L 30.5 0 L 30.5 -15.484375 L 15.203125 -15.484375 L 15.203125 0 L 3.96875 0 L 3.96875 -39.6875 L 15.203125 -39.6875 L 15.203125 -24.78125 L 30.5 -24.78125 L 30.5 -39.6875 Z M 41.734375 -39.6875 "/></g></g></g><g fill="#1d4355" fill-opacity="1"><g transform="translate(311.066314, 319.471355)"><g><path d="M 23.984375 0.796875 C 19.785156 0.796875 16.015625 -0.0859375 12.671875 -1.859375 C 9.328125 -3.640625 6.695312 -6.097656 4.78125 -9.234375 C 2.875 -12.378906 1.921875 -15.914062 1.921875 -19.84375 C 1.921875 -23.78125 2.875 -27.316406 4.78125 -30.453125 C 6.695312 -33.585938 9.328125 -36.039062 12.671875 -37.8125 C 16.015625 -39.59375 19.785156 -40.484375 23.984375 -40.484375 C 28.179688 -40.484375 31.953125 -39.59375 35.296875 -37.8125 C 38.640625 -36.039062 41.265625 -33.585938 43.171875 -30.453125 C 45.085938 -27.316406 46.046875 -23.78125 46.046875 -19.84375 C 46.046875 -15.914062 45.085938 -12.378906 43.171875 -9.234375 C 41.265625 -6.097656 38.640625 -3.640625 35.296875 -1.859375 C 31.953125 -0.0859375 28.179688 0.796875 23.984375 0.796875 Z M 23.984375 -8.5 C 25.984375 -8.5 27.796875 -8.972656 29.421875 -9.921875 C 31.046875 -10.867188 32.332031 -12.203125 33.28125 -13.921875 C 34.226562 -15.640625 34.703125 -17.613281 34.703125 -19.84375 C 34.703125 -22.070312 34.226562 -24.046875 33.28125 -25.765625 C 32.332031 -27.484375 31.046875 -28.816406 29.421875 -29.765625 C 27.796875 -30.710938 25.984375 -31.1875 23.984375 -31.1875 C 21.984375 -31.1875 20.171875 -30.710938 18.546875 -29.765625 C 16.921875 -28.816406 15.632812 -27.484375 14.6875 -25.765625 C 13.738281 -24.046875 13.265625 -22.070312 13.265625 -19.84375 C 13.265625 -17.613281 13.738281 -15.640625 14.6875 -13.921875 C 15.632812 -12.203125 16.921875 -10.867188 18.546875 -9.921875 C 20.171875 -8.972656 21.984375 -8.5 23.984375 -8.5 Z M 23.984375 -8.5 "/></g></g></g><g fill="#365b6d" fill-opacity="1"><g transform="translate(7.705293, 359.143141)"><g><path d="M 12.5625 -3.65625 L 4.40625 -3.65625 L 2.859375 0 L 0.015625 0 L 7.15625 -16.171875 L 9.953125 -16.171875 L 17.015625 0 L 14.109375 0 Z M 11.53125 -6.078125 L 8.46875 -13.25 L 5.421875 -6.078125 Z M 11.53125 -6.078125 "/></g></g></g><g fill="#365b6d" fill-opacity="1"><g transform="translate(27.267324, 359.143141)"><g><path d="M 15.859375 -16.171875 L 15.859375 -6.703125 C 15.859375 -4.585938 15.234375 -2.921875 13.984375 -1.703125 C 12.742188 -0.492188 11.03125 0.109375 8.84375 0.109375 C 6.65625 0.109375 4.929688 -0.492188 3.671875 -1.703125 C 2.421875 -2.921875 1.796875 -4.585938 1.796875 -6.703125 L 1.796875 -16.171875 L 4.53125 -16.171875 L 4.53125 -6.703125 C 4.53125 -5.347656 4.914062 -4.28125 5.6875 -3.5 C 6.46875 -2.71875 7.53125 -2.328125 8.875 -2.328125 C 10.195312 -2.328125 11.238281 -2.710938 12 -3.484375 C 12.757812 -4.253906 13.140625 -5.328125 13.140625 -6.703125 L 13.140625 -16.171875 Z M 15.859375 -16.171875 "/></g></g></g><g fill="#365b6d" fill-opacity="1"><g transform="translate(47.429775, 359.143141)"><g><path d="M 13.15625 -13.71875 L 8.03125 -13.71875 L 8.03125 0 L 5.3125 0 L 5.3125 -13.71875 L 0.203125 -13.71875 L 0.203125 -16.171875 L 13.15625 -16.171875 Z M 13.15625 -13.71875 "/></g></g></g><g fill="#365b6d" fill-opacity="1"><g transform="translate(63.319943, 359.143141)"><g><path d="M 3.25 -13.890625 C 4.90625 -15.453125 6.941406 -16.234375 9.359375 -16.234375 C 11.773438 -16.234375 13.804688 -15.453125 15.453125 -13.890625 C 17.097656 -12.328125 17.921875 -10.390625 17.921875 -8.078125 C 17.921875 -5.773438 17.097656 -3.832031 15.453125 -2.25 C 13.804688 -0.675781 11.773438 0.109375 9.359375 0.109375 C 6.941406 0.109375 4.90625 -0.675781 3.25 -2.25 C 1.601562 -3.832031 0.78125 -5.773438 0.78125 -8.078125 C 0.78125 -10.390625 1.601562 -12.328125 3.25 -13.890625 Z M 9.375 -13.78125 C 7.769531 -13.78125 6.398438 -13.226562 5.265625 -12.125 C 4.128906 -11.03125 3.5625 -9.679688 3.5625 -8.078125 C 3.5625 -6.484375 4.132812 -5.125 5.28125 -4 C 6.425781 -2.882812 7.789062 -2.328125 9.375 -2.328125 C 10.957031 -2.328125 12.3125 -2.882812 13.4375 -4 C 14.5625 -5.125 15.125 -6.484375 15.125 -8.078125 C 15.125 -9.679688 14.5625 -11.03125 13.4375 -12.125 C 12.3125 -13.226562 10.957031 -13.78125 9.375 -13.78125 Z M 9.375 -13.78125 "/></g></g></g><g fill="#365b6d" fill-opacity="1"><g transform="translate(84.544699, 359.143141)"><g><path d="M 19.21875 0 L 16.703125 0 L 16.671875 -12.078125 L 11.5625 -1.6875 L 9.796875 -1.6875 L 4.6875 -12.078125 L 4.6875 0 L 2.125 0 L 2.125 -16.171875 L 5.359375 -16.171875 L 10.6875 -5.421875 L 16 -16.171875 L 19.21875 -16.171875 Z M 19.21875 0 "/></g></g></g><g fill="#365b6d" fill-opacity="1"><g transform="translate(108.425197, 359.143141)"><g><path d="M 12.5625 -3.65625 L 4.40625 -3.65625 L 2.859375 0 L 0.015625 0 L 7.15625 -16.171875 L 9.953125 -16.171875 L 17.015625 0 L 14.109375 0 Z M 11.53125 -6.078125 L 8.46875 -13.25 L 5.421875 -6.078125 Z M 11.53125 -6.078125 "/></g></g></g><g fill="#365b6d" fill-opacity="1"><g transform="translate(127.987225, 359.143141)"><g><path d="M 9.96875 0.0625 L 9.46875 1.15625 C 9.957031 1.25 10.347656 1.453125 10.640625 1.765625 C 10.929688 2.078125 11.078125 2.484375 11.078125 2.984375 C 11.078125 3.640625 10.84375 4.164062 10.375 4.5625 C 9.90625 4.96875 9.328125 5.171875 8.640625 5.171875 C 7.867188 5.171875 7.191406 4.957031 6.609375 4.53125 L 7.109375 3.28125 C 7.515625 3.582031 7.960938 3.734375 8.453125 3.734375 C 8.773438 3.734375 9.03125 3.632812 9.21875 3.4375 C 9.414062 3.25 9.515625 3.03125 9.515625 2.78125 C 9.515625 2.539062 9.414062 2.335938 9.21875 2.171875 C 9.03125 2.003906 8.757812 1.921875 8.40625 1.921875 C 8.144531 1.921875 7.875 1.957031 7.59375 2.03125 L 8.421875 0.09375 C 6.242188 -0.09375 4.425781 -0.957031 2.96875 -2.5 C 1.507812 -4.050781 0.78125 -5.921875 0.78125 -8.109375 C 0.78125 -10.398438 1.597656 -12.328125 3.234375 -13.890625 C 4.878906 -15.453125 6.894531 -16.234375 9.28125 -16.234375 C 10.425781 -16.234375 11.539062 -16.015625 12.625 -15.578125 C 13.707031 -15.140625 14.640625 -14.523438 15.421875 -13.734375 L 13.828125 -11.75 C 13.242188 -12.382812 12.550781 -12.882812 11.75 -13.25 C 10.945312 -13.625 10.140625 -13.8125 9.328125 -13.8125 C 7.710938 -13.8125 6.347656 -13.257812 5.234375 -12.15625 C 4.117188 -11.050781 3.5625 -9.707031 3.5625 -8.125 C 3.5625 -6.53125 4.117188 -5.179688 5.234375 -4.078125 C 6.347656 -2.972656 7.710938 -2.421875 9.328125 -2.421875 C 11.003906 -2.421875 12.503906 -3.0625 13.828125 -4.34375 L 15.453125 -2.546875 C 13.898438 -1.015625 12.070312 -0.144531 9.96875 0.0625 Z M 9.96875 0.0625 "/></g></g></g><g fill="#365b6d" fill-opacity="1"><g transform="translate(146.602398, 359.143141)"><g><path d="M 7.640625 -21.390625 C 8.109375 -21.390625 8.628906 -21.175781 9.203125 -20.75 C 9.773438 -20.320312 10.171875 -20.109375 10.390625 -20.109375 C 10.972656 -20.109375 11.265625 -20.488281 11.265625 -21.25 L 12.953125 -21.25 C 12.953125 -19.226562 12.253906 -18.21875 10.859375 -18.21875 C 10.347656 -18.21875 9.8125 -18.425781 9.25 -18.84375 C 8.6875 -19.269531 8.296875 -19.484375 8.078125 -19.484375 C 7.515625 -19.484375 7.234375 -19.109375 7.234375 -18.359375 L 5.515625 -18.359375 C 5.515625 -20.378906 6.222656 -21.390625 7.640625 -21.390625 Z M 3.25 -13.890625 C 4.90625 -15.453125 6.941406 -16.234375 9.359375 -16.234375 C 11.773438 -16.234375 13.804688 -15.453125 15.453125 -13.890625 C 17.097656 -12.328125 17.921875 -10.390625 17.921875 -8.078125 C 17.921875 -5.773438 17.097656 -3.832031 15.453125 -2.25 C 13.804688 -0.675781 11.773438 0.109375 9.359375 0.109375 C 6.941406 0.109375 4.90625 -0.675781 3.25 -2.25 C 1.601562 -3.832031 0.78125 -5.773438 0.78125 -8.078125 C 0.78125 -10.390625 1.601562 -12.328125 3.25 -13.890625 Z M 9.375 -13.78125 C 7.769531 -13.78125 6.398438 -13.226562 5.265625 -12.125 C 4.128906 -11.03125 3.5625 -9.679688 3.5625 -8.078125 C 3.5625 -6.484375 4.132812 -5.125 5.28125 -4 C 6.425781 -2.882812 7.789062 -2.328125 9.375 -2.328125 C 10.957031 -2.328125 12.3125 -2.882812 13.4375 -4 C 14.5625 -5.125 15.125 -6.484375 15.125 -8.078125 C 15.125 -9.679688 14.5625 -11.03125 13.4375 -12.125 C 12.3125 -13.226562 10.957031 -13.78125 9.375 -13.78125 Z M 9.375 -13.78125 "/></g></g></g><g fill="#365b6d" fill-opacity="1"><g transform="translate(167.827154, 359.143141)"><g><path d="M 13.671875 -13.71875 L 4.84375 -13.71875 L 4.84375 -9.359375 L 12.75 -9.359375 L 12.75 -6.90625 L 4.84375 -6.90625 L 4.84375 -2.453125 L 13.953125 -2.453125 L 13.953125 0 L 2.125 0 L 2.125 -16.171875 L 13.671875 -16.171875 Z M 13.671875 -13.71875 "/></g></g></g><g fill="#365b6d" fill-opacity="1"><g transform="translate(185.495498, 359.143141)"><g><path d="M 7.4375 -16.28125 C 9.53125 -16.28125 11.414062 -15.726562 13.09375 -14.625 L 11.96875 -12.21875 C 10.3125 -13.21875 8.734375 -13.71875 7.234375 -13.71875 C 6.410156 -13.71875 5.765625 -13.570312 5.296875 -13.28125 C 4.828125 -12.988281 4.59375 -12.570312 4.59375 -12.03125 C 4.59375 -11.488281 4.804688 -11.03125 5.234375 -10.65625 C 5.671875 -10.28125 6.210938 -10.003906 6.859375 -9.828125 C 7.503906 -9.648438 8.203125 -9.425781 8.953125 -9.15625 C 9.710938 -8.882812 10.414062 -8.597656 11.0625 -8.296875 C 11.707031 -8.003906 12.238281 -7.535156 12.65625 -6.890625 C 13.082031 -6.253906 13.296875 -5.484375 13.296875 -4.578125 C 13.296875 -3.160156 12.726562 -2.023438 11.59375 -1.171875 C 10.46875 -0.328125 9.003906 0.09375 7.203125 0.09375 C 5.972656 0.09375 4.78125 -0.132812 3.625 -0.59375 C 2.46875 -1.0625 1.457031 -1.6875 0.59375 -2.46875 L 1.78125 -4.828125 C 2.59375 -4.066406 3.488281 -3.484375 4.46875 -3.078125 C 5.445312 -2.671875 6.375 -2.46875 7.25 -2.46875 C 8.207031 -2.46875 8.953125 -2.640625 9.484375 -2.984375 C 10.015625 -3.335938 10.28125 -3.820312 10.28125 -4.4375 C 10.28125 -4.988281 10.0625 -5.453125 9.625 -5.828125 C 9.195312 -6.203125 8.660156 -6.476562 8.015625 -6.65625 C 7.367188 -6.832031 6.664062 -7.046875 5.90625 -7.296875 C 5.15625 -7.554688 4.457031 -7.828125 3.8125 -8.109375 C 3.164062 -8.398438 2.625 -8.859375 2.1875 -9.484375 C 1.757812 -10.117188 1.546875 -10.882812 1.546875 -11.78125 C 1.546875 -13.144531 2.082031 -14.234375 3.15625 -15.046875 C 4.238281 -15.867188 5.664062 -16.28125 7.4375 -16.28125 Z M 7.4375 -16.28125 "/></g></g></g><g fill="#365b6d" fill-opacity="1"><g transform="translate(202.378676, 359.143141)"><g/></g></g><g fill="#365b6d" fill-opacity="1"><g transform="translate(210.855819, 359.143141)"><g><path d="M 9.28125 -16.234375 C 10.425781 -16.234375 11.539062 -16.015625 12.625 -15.578125 C 13.707031 -15.140625 14.640625 -14.523438 15.421875 -13.734375 L 13.828125 -11.75 C 13.242188 -12.382812 12.550781 -12.882812 11.75 -13.25 C 10.945312 -13.625 10.140625 -13.8125 9.328125 -13.8125 C 7.710938 -13.8125 6.347656 -13.257812 5.234375 -12.15625 C 4.117188 -11.050781 3.5625 -9.707031 3.5625 -8.125 C 3.5625 -6.53125 4.117188 -5.179688 5.234375 -4.078125 C 6.347656 -2.972656 7.710938 -2.421875 9.328125 -2.421875 C 11.003906 -2.421875 12.503906 -3.0625 13.828125 -4.34375 L 15.453125 -2.546875 C 14.617188 -1.722656 13.644531 -1.070312 12.53125 -0.59375 C 11.425781 -0.125 10.3125 0.109375 9.1875 0.109375 C 6.820312 0.109375 4.828125 -0.675781 3.203125 -2.25 C 1.585938 -3.832031 0.78125 -5.785156 0.78125 -8.109375 C 0.78125 -10.398438 1.597656 -12.328125 3.234375 -13.890625 C 4.878906 -15.453125 6.894531 -16.234375 9.28125 -16.234375 Z M 9.28125 -16.234375 "/></g></g></g><g fill="#365b6d" fill-opacity="1"><g transform="translate(229.471005, 359.143141)"><g><path d="M 3.25 -13.890625 C 4.90625 -15.453125 6.941406 -16.234375 9.359375 -16.234375 C 11.773438 -16.234375 13.804688 -15.453125 15.453125 -13.890625 C 17.097656 -12.328125 17.921875 -10.390625 17.921875 -8.078125 C 17.921875 -5.773438 17.097656 -3.832031 15.453125 -2.25 C 13.804688 -0.675781 11.773438 0.109375 9.359375 0.109375 C 6.941406 0.109375 4.90625 -0.675781 3.25 -2.25 C 1.601562 -3.832031 0.78125 -5.773438 0.78125 -8.078125 C 0.78125 -10.390625 1.601562 -12.328125 3.25 -13.890625 Z M 9.375 -13.78125 C 7.769531 -13.78125 6.398438 -13.226562 5.265625 -12.125 C 4.128906 -11.03125 3.5625 -9.679688 3.5625 -8.078125 C 3.5625 -6.484375 4.132812 -5.125 5.28125 -4 C 6.425781 -2.882812 7.789062 -2.328125 9.375 -2.328125 C 10.957031 -2.328125 12.3125 -2.882812 13.4375 -4 C 14.5625 -5.125 15.125 -6.484375 15.125 -8.078125 C 15.125 -9.679688 14.5625 -11.03125 13.4375 -12.125 C 12.3125 -13.226562 10.957031 -13.78125 9.375 -13.78125 Z M 9.375 -13.78125 "/></g></g></g><g fill="#365b6d" fill-opacity="1"><g transform="translate(250.695772, 359.143141)"><g><path d="M 16.140625 0 L 13.46875 0 L 4.84375 -11.59375 L 4.84375 0 L 2.125 0 L 2.125 -16.171875 L 4.796875 -16.171875 L 13.46875 -4.546875 L 13.46875 -16.171875 L 16.140625 -16.171875 Z M 16.140625 0 "/></g></g></g><g fill="#365b6d" fill-opacity="1"><g transform="translate(271.504839, 359.143141)"><g><path d="M 13.15625 -13.71875 L 8.03125 -13.71875 L 8.03125 0 L 5.3125 0 L 5.3125 -13.71875 L 0.203125 -13.71875 L 0.203125 -16.171875 L 13.15625 -16.171875 Z M 13.15625 -13.71875 "/></g></g></g><g fill="#365b6d" fill-opacity="1"><g transform="translate(287.395014, 359.143141)"><g><path d="M 9.328125 -17.921875 L 6.96875 -17.921875 L 9.421875 -21.34375 L 12.140625 -20.1875 Z M 12.5625 -3.65625 L 4.40625 -3.65625 L 2.859375 0 L 0.015625 0 L 7.15625 -16.171875 L 9.953125 -16.171875 L 17.015625 0 L 14.109375 0 Z M 11.53125 -6.078125 L 8.46875 -13.25 L 5.421875 -6.078125 Z M 11.53125 -6.078125 "/></g></g></g><g fill="#365b6d" fill-opacity="1"><g transform="translate(306.957053, 359.143141)"><g><path d="M 2.125 -16.171875 L 9.140625 -16.171875 C 10.816406 -16.171875 12.140625 -15.8125 13.109375 -15.09375 C 14.085938 -14.375 14.578125 -13.382812 14.578125 -12.125 C 14.578125 -11.21875 14.320312 -10.441406 13.8125 -9.796875 C 13.300781 -9.160156 12.609375 -8.734375 11.734375 -8.515625 C 12.804688 -8.335938 13.648438 -7.882812 14.265625 -7.15625 C 14.890625 -6.4375 15.203125 -5.53125 15.203125 -4.4375 C 15.203125 -3.050781 14.675781 -1.960938 13.625 -1.171875 C 12.582031 -0.390625 11.144531 0 9.3125 0 L 2.125 0 Z M 4.84375 -13.734375 L 4.84375 -9.46875 L 9 -9.46875 C 9.863281 -9.46875 10.539062 -9.660156 11.03125 -10.046875 C 11.53125 -10.429688 11.78125 -10.960938 11.78125 -11.640625 C 11.78125 -12.316406 11.535156 -12.832031 11.046875 -13.1875 C 10.566406 -13.550781 9.882812 -13.734375 9 -13.734375 Z M 4.84375 -7.0625 L 4.84375 -2.421875 L 9 -2.421875 C 10.082031 -2.421875 10.921875 -2.625 11.515625 -3.03125 C 12.109375 -3.445312 12.40625 -4.03125 12.40625 -4.78125 C 12.40625 -5.488281 12.101562 -6.046875 11.5 -6.453125 C 10.894531 -6.859375 10.0625 -7.0625 9 -7.0625 Z M 4.84375 -7.0625 "/></g></g></g><g fill="#365b6d" fill-opacity="1"><g transform="translate(325.780089, 359.143141)"><g><path d="M 13.671875 -13.71875 L 4.84375 -13.71875 L 4.84375 -9.359375 L 12.75 -9.359375 L 12.75 -6.90625 L 4.84375 -6.90625 L 4.84375 -2.453125 L 13.953125 -2.453125 L 13.953125 0 L 2.125 0 L 2.125 -16.171875 L 13.671875 -16.171875 Z M 13.671875 -13.71875 "/></g></g></g><g fill="#365b6d" fill-opacity="1"><g transform="translate(343.448445, 359.143141)"><g><path d="M 4.84375 0 L 2.125 0 L 2.125 -16.171875 L 4.84375 -16.171875 Z M 4.84375 0 "/></g></g></g><g fill="#365b6d" fill-opacity="1"><g transform="translate(352.941721, 359.143141)"><g><path d="M 7.4375 -16.28125 C 9.53125 -16.28125 11.414062 -15.726562 13.09375 -14.625 L 11.96875 -12.21875 C 10.3125 -13.21875 8.734375 -13.71875 7.234375 -13.71875 C 6.410156 -13.71875 5.765625 -13.570312 5.296875 -13.28125 C 4.828125 -12.988281 4.59375 -12.570312 4.59375 -12.03125 C 4.59375 -11.488281 4.804688 -11.03125 5.234375 -10.65625 C 5.671875 -10.28125 6.210938 -10.003906 6.859375 -9.828125 C 7.503906 -9.648438 8.203125 -9.425781 8.953125 -9.15625 C 9.710938 -8.882812 10.414062 -8.597656 11.0625 -8.296875 C 11.707031 -8.003906 12.238281 -7.535156 12.65625 -6.890625 C 13.082031 -6.253906 13.296875 -5.484375 13.296875 -4.578125 C 13.296875 -3.160156 12.726562 -2.023438 11.59375 -1.171875 C 10.46875 -0.328125 9.003906 0.09375 7.203125 0.09375 C 5.972656 0.09375 4.78125 -0.132812 3.625 -0.59375 C 2.46875 -1.0625 1.457031 -1.6875 0.59375 -2.46875 L 1.78125 -4.828125 C 2.59375 -4.066406 3.488281 -3.484375 4.46875 -3.078125 C 5.445312 -2.671875 6.375 -2.46875 7.25 -2.46875 C 8.207031 -2.46875 8.953125 -2.640625 9.484375 -2.984375 C 10.015625 -3.335938 10.28125 -3.820312 10.28125 -4.4375 C 10.28125 -4.988281 10.0625 -5.453125 9.625 -5.828125 C 9.195312 -6.203125 8.660156 -6.476562 8.015625 -6.65625 C 7.367188 -6.832031 6.664062 -7.046875 5.90625 -7.296875 C 5.15625 -7.554688 4.457031 -7.828125 3.8125 -8.109375 C 3.164062 -8.398438 2.625 -8.859375 2.1875 -9.484375 C 1.757812 -10.117188 1.546875 -10.882812 1.546875 -11.78125 C 1.546875 -13.144531 2.082031 -14.234375 3.15625 -15.046875 C 4.238281 -15.867188 5.664062 -16.28125 7.4375 -16.28125 Z M 7.4375 -16.28125 "/></g></g></g></svg>