<svg xmlns="http://www.w3.org/2000/svg" xmlns:xlink="http://www.w3.org/1999/xlink" width="100" zoomAndPan="magnify" viewBox="0 0 75 30.000001" height="40" preserveAspectRatio="xMidYMid meet" version="1.0"><defs><g/><clipPath id="6e32b6bd88"><path d="M 2.191406 1.753906 L 23 1.753906 L 23 27.15625 L 2.191406 27.15625 Z M 2.191406 1.753906 " clip-rule="nonzero"/></clipPath><clipPath id="c537ef4bf1"><path d="M 16 11 L 26.871094 11 L 26.871094 27.15625 L 16 27.15625 Z M 16 11 " clip-rule="nonzero"/></clipPath></defs><g clip-path="url(#6e32b6bd88)"><path fill="#ffffff" d="M 6.601562 27.152344 L 10.566406 17.417969 L 14.542969 22.402344 L 20.867188 8.402344 L 22.34375 9.074219 L 21.625 1.761719 L 15.667969 6.042969 L 17.144531 6.714844 L 13.570312 14.628906 L 9.414062 9.414062 L 2.191406 27.152344 L 6.601562 27.152344 " fill-opacity="1" fill-rule="nonzero"/></g><g clip-path="url(#c537ef4bf1)"><path fill="#0e415f" d="M 22.457031 27.152344 L 26.871094 27.152344 L 20.457031 11.40625 L 16.757812 19.59375 L 18.496094 17.417969 L 22.457031 27.152344 " fill-opacity="1" fill-rule="nonzero"/></g><g fill="#f2f1ec" fill-opacity="1"><g transform="translate(30.666358, 22.084544)"><g><path d="M 4.265625 -1.03125 L 4.265625 0 L 0.46875 0 L 0.46875 -4.71875 L 4.171875 -4.71875 L 4.171875 -3.6875 L 1.796875 -3.6875 L 1.796875 -2.890625 L 3.890625 -2.890625 L 3.890625 -1.890625 L 1.796875 -1.890625 L 1.796875 -1.03125 Z M 4.265625 -1.03125 "/></g></g></g><g fill="#f2f1ec" fill-opacity="1"><g transform="translate(35.825527, 22.084544)"><g><path d="M 4.734375 0 L 4.71875 -2.5 L 3.515625 -0.46875 L 2.921875 -0.46875 L 1.703125 -2.4375 L 1.703125 0 L 0.46875 0 L 0.46875 -4.71875 L 1.578125 -4.71875 L 3.234375 -2 L 4.859375 -4.71875 L 5.953125 -4.71875 L 5.96875 0 Z M 4.734375 0 "/></g></g></g><g fill="#f2f1ec" fill-opacity="1"><g transform="translate(42.886404, 22.084544)"><g><path d="M 2.625 -4.71875 C 3.0625 -4.71875 3.4375 -4.644531 3.75 -4.5 C 4.0625 -4.363281 4.300781 -4.164062 4.46875 -3.90625 C 4.644531 -3.644531 4.734375 -3.335938 4.734375 -2.984375 C 4.734375 -2.617188 4.644531 -2.304688 4.46875 -2.046875 C 4.300781 -1.785156 4.0625 -1.582031 3.75 -1.4375 C 3.4375 -1.300781 3.0625 -1.234375 2.625 -1.234375 L 1.8125 -1.234375 L 1.8125 0 L 0.46875 0 L 0.46875 -4.71875 Z M 2.546875 -2.28125 C 2.828125 -2.28125 3.035156 -2.335938 3.171875 -2.453125 C 3.304688 -2.578125 3.375 -2.753906 3.375 -2.984375 C 3.375 -3.203125 3.304688 -3.367188 3.171875 -3.484375 C 3.035156 -3.609375 2.828125 -3.671875 2.546875 -3.671875 L 1.8125 -3.671875 L 1.8125 -2.28125 Z M 2.546875 -2.28125 "/></g></g></g><g fill="#f2f1ec" fill-opacity="1"><g transform="translate(48.48391, 22.084544)"><g><path d="M 4.265625 -1.03125 L 4.265625 0 L 0.46875 0 L 0.46875 -4.71875 L 4.171875 -4.71875 L 4.171875 -3.6875 L 1.796875 -3.6875 L 1.796875 -2.890625 L 3.890625 -2.890625 L 3.890625 -1.890625 L 1.796875 -1.890625 L 1.796875 -1.03125 Z M 4.265625 -1.03125 "/></g></g></g><g fill="#f2f1ec" fill-opacity="1"><g transform="translate(53.643078, 22.084544)"><g><path d="M 4.96875 -4.71875 L 4.96875 0 L 3.875 0 L 1.78125 -2.515625 L 1.78125 0 L 0.46875 0 L 0.46875 -4.71875 L 1.578125 -4.71875 L 3.65625 -2.203125 L 3.65625 -4.71875 Z M 4.96875 -4.71875 "/></g></g></g><g fill="#f2f1ec" fill-opacity="1"><g transform="translate(59.705893, 22.084544)"><g><path d="M 4.96875 -4.71875 L 4.96875 0 L 3.625 0 L 3.625 -1.84375 L 1.8125 -1.84375 L 1.8125 0 L 0.46875 0 L 0.46875 -4.71875 L 1.8125 -4.71875 L 1.8125 -2.953125 L 3.625 -2.953125 L 3.625 -4.71875 Z M 4.96875 -4.71875 "/></g></g></g><g fill="#f2f1ec" fill-opacity="1"><g transform="translate(65.768709, 22.084544)"><g><path d="M 2.859375 0.09375 C 2.359375 0.09375 1.90625 -0.0078125 1.5 -0.21875 C 1.101562 -0.4375 0.789062 -0.726562 0.5625 -1.09375 C 0.34375 -1.46875 0.234375 -1.890625 0.234375 -2.359375 C 0.234375 -2.828125 0.34375 -3.25 0.5625 -3.625 C 0.789062 -4 1.101562 -4.289062 1.5 -4.5 C 1.90625 -4.707031 2.359375 -4.8125 2.859375 -4.8125 C 3.359375 -4.8125 3.804688 -4.707031 4.203125 -4.5 C 4.597656 -4.289062 4.910156 -4 5.140625 -3.625 C 5.367188 -3.25 5.484375 -2.828125 5.484375 -2.359375 C 5.484375 -1.890625 5.367188 -1.46875 5.140625 -1.09375 C 4.910156 -0.726562 4.597656 -0.4375 4.203125 -0.21875 C 3.804688 -0.0078125 3.359375 0.09375 2.859375 0.09375 Z M 2.859375 -1.015625 C 3.097656 -1.015625 3.3125 -1.066406 3.5 -1.171875 C 3.695312 -1.285156 3.847656 -1.445312 3.953125 -1.65625 C 4.066406 -1.863281 4.125 -2.097656 4.125 -2.359375 C 4.125 -2.628906 4.066406 -2.863281 3.953125 -3.0625 C 3.847656 -3.269531 3.695312 -3.429688 3.5 -3.546875 C 3.3125 -3.660156 3.097656 -3.71875 2.859375 -3.71875 C 2.617188 -3.71875 2.398438 -3.660156 2.203125 -3.546875 C 2.015625 -3.429688 1.863281 -3.269531 1.75 -3.0625 C 1.632812 -2.863281 1.578125 -2.628906 1.578125 -2.359375 C 1.578125 -2.097656 1.632812 -1.863281 1.75 -1.65625 C 1.863281 -1.445312 2.015625 -1.285156 2.203125 -1.171875 C 2.398438 -1.066406 2.617188 -1.015625 2.859375 -1.015625 Z M 2.859375 -1.015625 "/></g></g></g><g fill="#f2f1ec" fill-opacity="1"><g transform="translate(29.081666, 26.615588)"><g><path d="M 1.5 -0.453125 L 0.546875 -0.453125 L 0.359375 0 L -0.015625 0 L 0.859375 -1.921875 L 1.203125 -1.921875 L 2.078125 0 L 1.703125 0 Z M 1.390625 -0.71875 L 1.03125 -1.5625 L 0.671875 -0.71875 Z M 1.390625 -0.71875 "/></g></g></g><g fill="#f2f1ec" fill-opacity="1"><g transform="translate(31.43853, 26.615588)"><g><path d="M 1.09375 0.03125 C 0.820312 0.03125 0.609375 -0.0390625 0.453125 -0.1875 C 0.304688 -0.34375 0.234375 -0.5625 0.234375 -0.84375 L 0.234375 -1.921875 L 0.59375 -1.921875 L 0.59375 -0.859375 C 0.59375 -0.472656 0.757812 -0.28125 1.09375 -0.28125 C 1.414062 -0.28125 1.578125 -0.472656 1.578125 -0.859375 L 1.578125 -1.921875 L 1.921875 -1.921875 L 1.921875 -0.84375 C 1.921875 -0.5625 1.847656 -0.34375 1.703125 -0.1875 C 1.554688 -0.0390625 1.351562 0.03125 1.09375 0.03125 Z M 1.09375 0.03125 "/></g></g></g><g fill="#f2f1ec" fill-opacity="1"><g transform="translate(33.905262, 26.615588)"><g><path d="M 0.65625 -1.625 L 0.015625 -1.625 L 0.015625 -1.921875 L 1.640625 -1.921875 L 1.640625 -1.625 L 1 -1.625 L 1 0 L 0.65625 0 Z M 0.65625 -1.625 "/></g></g></g><g fill="#f2f1ec" fill-opacity="1"><g transform="translate(35.858365, 26.615588)"><g><path d="M 1.15625 0.03125 C 0.957031 0.03125 0.78125 -0.0078125 0.625 -0.09375 C 0.46875 -0.1875 0.34375 -0.304688 0.25 -0.453125 C 0.164062 -0.609375 0.125 -0.78125 0.125 -0.96875 C 0.125 -1.15625 0.164062 -1.320312 0.25 -1.46875 C 0.34375 -1.625 0.46875 -1.742188 0.625 -1.828125 C 0.78125 -1.910156 0.957031 -1.953125 1.15625 -1.953125 C 1.351562 -1.953125 1.53125 -1.910156 1.6875 -1.828125 C 1.84375 -1.742188 1.960938 -1.625 2.046875 -1.46875 C 2.140625 -1.320312 2.1875 -1.15625 2.1875 -0.96875 C 2.1875 -0.769531 2.140625 -0.597656 2.046875 -0.453125 C 1.960938 -0.304688 1.84375 -0.1875 1.6875 -0.09375 C 1.53125 -0.0078125 1.351562 0.03125 1.15625 0.03125 Z M 1.15625 -0.28125 C 1.28125 -0.28125 1.394531 -0.304688 1.5 -0.359375 C 1.601562 -0.421875 1.679688 -0.503906 1.734375 -0.609375 C 1.796875 -0.710938 1.828125 -0.832031 1.828125 -0.96875 C 1.828125 -1.09375 1.796875 -1.207031 1.734375 -1.3125 C 1.679688 -1.414062 1.601562 -1.492188 1.5 -1.546875 C 1.394531 -1.609375 1.28125 -1.640625 1.15625 -1.640625 C 1.03125 -1.640625 0.914062 -1.609375 0.8125 -1.546875 C 0.707031 -1.492188 0.625 -1.414062 0.5625 -1.3125 C 0.507812 -1.207031 0.484375 -1.09375 0.484375 -0.96875 C 0.484375 -0.832031 0.507812 -0.710938 0.5625 -0.609375 C 0.625 -0.503906 0.707031 -0.421875 0.8125 -0.359375 C 0.914062 -0.304688 1.03125 -0.28125 1.15625 -0.28125 Z M 1.15625 -0.28125 "/></g></g></g><g fill="#f2f1ec" fill-opacity="1"><g transform="translate(38.47067, 26.615588)"><g><path d="M 2.03125 0 L 2.03125 -1.28125 L 1.390625 -0.21875 L 1.234375 -0.21875 L 0.59375 -1.265625 L 0.59375 0 L 0.265625 0 L 0.265625 -1.921875 L 0.546875 -1.921875 L 1.3125 -0.65625 L 2.0625 -1.921875 L 2.359375 -1.921875 L 2.359375 0 Z M 2.03125 0 "/></g></g></g><g fill="#f2f1ec" fill-opacity="1"><g transform="translate(41.393348, 26.615588)"><g><path d="M 1.5 -0.453125 L 0.546875 -0.453125 L 0.359375 0 L -0.015625 0 L 0.859375 -1.921875 L 1.203125 -1.921875 L 2.078125 0 L 1.703125 0 Z M 1.390625 -0.71875 L 1.03125 -1.5625 L 0.671875 -0.71875 Z M 1.390625 -0.71875 "/></g></g></g><g fill="#f2f1ec" fill-opacity="1"><g transform="translate(43.750212, 26.615588)"><g><path d="M 1.15625 0.03125 C 0.957031 0.03125 0.78125 -0.0078125 0.625 -0.09375 C 0.46875 -0.1875 0.34375 -0.304688 0.25 -0.453125 C 0.164062 -0.597656 0.125 -0.769531 0.125 -0.96875 C 0.125 -1.15625 0.164062 -1.320312 0.25 -1.46875 C 0.34375 -1.625 0.46875 -1.742188 0.625 -1.828125 C 0.78125 -1.910156 0.957031 -1.953125 1.15625 -1.953125 C 1.3125 -1.953125 1.453125 -1.921875 1.578125 -1.859375 C 1.710938 -1.804688 1.820312 -1.726562 1.90625 -1.625 L 1.6875 -1.40625 C 1.539062 -1.5625 1.367188 -1.640625 1.171875 -1.640625 C 1.035156 -1.640625 0.914062 -1.609375 0.8125 -1.546875 C 0.707031 -1.492188 0.625 -1.414062 0.5625 -1.3125 C 0.507812 -1.207031 0.484375 -1.09375 0.484375 -0.96875 C 0.484375 -0.832031 0.507812 -0.710938 0.5625 -0.609375 C 0.625 -0.503906 0.707031 -0.421875 0.8125 -0.359375 C 0.914062 -0.304688 1.035156 -0.28125 1.171875 -0.28125 C 1.367188 -0.28125 1.539062 -0.359375 1.6875 -0.515625 L 1.90625 -0.296875 C 1.820312 -0.191406 1.710938 -0.109375 1.578125 -0.046875 C 1.453125 0.00390625 1.3125 0.03125 1.15625 0.03125 Z M 1.015625 0.625 C 0.921875 0.625 0.835938 0.601562 0.765625 0.5625 L 0.828125 0.40625 C 0.878906 0.4375 0.941406 0.453125 1.015625 0.453125 C 1.109375 0.453125 1.15625 0.421875 1.15625 0.359375 C 1.15625 0.328125 1.144531 0.300781 1.125 0.28125 C 1.101562 0.269531 1.066406 0.265625 1.015625 0.265625 L 0.921875 0.265625 L 1 -0.015625 L 1.1875 -0.015625 L 1.15625 0.140625 C 1.226562 0.148438 1.285156 0.171875 1.328125 0.203125 C 1.367188 0.242188 1.390625 0.296875 1.390625 0.359375 C 1.390625 0.441406 1.351562 0.503906 1.28125 0.546875 C 1.21875 0.597656 1.128906 0.625 1.015625 0.625 Z M 1.015625 0.625 "/></g></g></g><g fill="#f2f1ec" fill-opacity="1"><g transform="translate(46.04665, 26.615588)"><g><path d="M 1.15625 0.03125 C 0.957031 0.03125 0.78125 -0.0078125 0.625 -0.09375 C 0.46875 -0.1875 0.34375 -0.304688 0.25 -0.453125 C 0.164062 -0.609375 0.125 -0.78125 0.125 -0.96875 C 0.125 -1.15625 0.164062 -1.320312 0.25 -1.46875 C 0.34375 -1.625 0.46875 -1.742188 0.625 -1.828125 C 0.78125 -1.910156 0.957031 -1.953125 1.15625 -1.953125 C 1.351562 -1.953125 1.53125 -1.910156 1.6875 -1.828125 C 1.84375 -1.742188 1.960938 -1.625 2.046875 -1.46875 C 2.140625 -1.320312 2.1875 -1.15625 2.1875 -0.96875 C 2.1875 -0.769531 2.140625 -0.597656 2.046875 -0.453125 C 1.960938 -0.304688 1.84375 -0.1875 1.6875 -0.09375 C 1.53125 -0.0078125 1.351562 0.03125 1.15625 0.03125 Z M 1.15625 -0.28125 C 1.28125 -0.28125 1.394531 -0.304688 1.5 -0.359375 C 1.601562 -0.421875 1.679688 -0.503906 1.734375 -0.609375 C 1.796875 -0.710938 1.828125 -0.832031 1.828125 -0.96875 C 1.828125 -1.09375 1.796875 -1.207031 1.734375 -1.3125 C 1.679688 -1.414062 1.601562 -1.492188 1.5 -1.546875 C 1.394531 -1.609375 1.28125 -1.640625 1.15625 -1.640625 C 1.03125 -1.640625 0.914062 -1.609375 0.8125 -1.546875 C 0.707031 -1.492188 0.625 -1.414062 0.5625 -1.3125 C 0.507812 -1.207031 0.484375 -1.09375 0.484375 -0.96875 C 0.484375 -0.832031 0.507812 -0.710938 0.5625 -0.609375 C 0.625 -0.503906 0.707031 -0.421875 0.8125 -0.359375 C 0.914062 -0.304688 1.03125 -0.28125 1.15625 -0.28125 Z M 1.359375 -2.078125 C 1.304688 -2.078125 1.265625 -2.085938 1.234375 -2.109375 C 1.203125 -2.128906 1.160156 -2.15625 1.109375 -2.1875 C 1.078125 -2.21875 1.050781 -2.238281 1.03125 -2.25 C 1.019531 -2.257812 1.003906 -2.265625 0.984375 -2.265625 C 0.941406 -2.265625 0.90625 -2.25 0.875 -2.21875 C 0.851562 -2.1875 0.84375 -2.144531 0.84375 -2.09375 L 0.671875 -2.09375 C 0.671875 -2.207031 0.695312 -2.296875 0.75 -2.359375 C 0.800781 -2.429688 0.875 -2.46875 0.96875 -2.46875 C 1.007812 -2.46875 1.046875 -2.457031 1.078125 -2.4375 C 1.109375 -2.414062 1.148438 -2.390625 1.203125 -2.359375 C 1.234375 -2.335938 1.257812 -2.316406 1.28125 -2.296875 C 1.300781 -2.285156 1.316406 -2.28125 1.328125 -2.28125 C 1.367188 -2.28125 1.398438 -2.296875 1.421875 -2.328125 C 1.453125 -2.359375 1.46875 -2.394531 1.46875 -2.4375 L 1.65625 -2.4375 C 1.65625 -2.332031 1.625 -2.242188 1.5625 -2.171875 C 1.507812 -2.109375 1.441406 -2.078125 1.359375 -2.078125 Z M 1.359375 -2.078125 "/></g></g></g><g fill="#f2f1ec" fill-opacity="1"><g transform="translate(48.658954, 26.615588)"><g><path d="M 1.703125 -0.296875 L 1.703125 0 L 0.265625 0 L 0.265625 -1.921875 L 1.65625 -1.921875 L 1.65625 -1.625 L 0.609375 -1.625 L 0.609375 -1.125 L 1.546875 -1.125 L 1.546875 -0.828125 L 0.609375 -0.828125 L 0.609375 -0.296875 Z M 1.703125 -0.296875 "/></g></g></g><g fill="#f2f1ec" fill-opacity="1"><g transform="translate(50.79883, 26.615588)"><g><path d="M 0.859375 0.03125 C 0.703125 0.03125 0.554688 0.0078125 0.421875 -0.03125 C 0.285156 -0.0703125 0.175781 -0.128906 0.09375 -0.203125 L 0.21875 -0.484375 C 0.300781 -0.421875 0.398438 -0.367188 0.515625 -0.328125 C 0.628906 -0.285156 0.742188 -0.265625 0.859375 -0.265625 C 0.992188 -0.265625 1.097656 -0.285156 1.171875 -0.328125 C 1.242188 -0.378906 1.28125 -0.441406 1.28125 -0.515625 C 1.28125 -0.578125 1.257812 -0.625 1.21875 -0.65625 C 1.175781 -0.6875 1.125 -0.710938 1.0625 -0.734375 C 1.007812 -0.753906 0.929688 -0.78125 0.828125 -0.8125 C 0.679688 -0.84375 0.5625 -0.875 0.46875 -0.90625 C 0.375 -0.945312 0.296875 -1.003906 0.234375 -1.078125 C 0.171875 -1.148438 0.140625 -1.25 0.140625 -1.375 C 0.140625 -1.476562 0.164062 -1.570312 0.21875 -1.65625 C 0.28125 -1.75 0.367188 -1.820312 0.484375 -1.875 C 0.597656 -1.925781 0.738281 -1.953125 0.90625 -1.953125 C 1.03125 -1.953125 1.148438 -1.9375 1.265625 -1.90625 C 1.378906 -1.875 1.472656 -1.832031 1.546875 -1.78125 L 1.4375 -1.5 C 1.351562 -1.550781 1.265625 -1.585938 1.171875 -1.609375 C 1.085938 -1.640625 1 -1.65625 0.90625 -1.65625 C 0.769531 -1.65625 0.664062 -1.628906 0.59375 -1.578125 C 0.53125 -1.535156 0.5 -1.472656 0.5 -1.390625 C 0.5 -1.335938 0.515625 -1.289062 0.546875 -1.25 C 0.585938 -1.21875 0.640625 -1.191406 0.703125 -1.171875 C 0.765625 -1.148438 0.847656 -1.128906 0.953125 -1.109375 C 1.085938 -1.078125 1.203125 -1.039062 1.296875 -1 C 1.390625 -0.96875 1.46875 -0.914062 1.53125 -0.84375 C 1.601562 -0.769531 1.640625 -0.671875 1.640625 -0.546875 C 1.640625 -0.441406 1.609375 -0.34375 1.546875 -0.25 C 1.484375 -0.164062 1.394531 -0.0976562 1.28125 -0.046875 C 1.164062 0.00390625 1.023438 0.03125 0.859375 0.03125 Z M 0.859375 0.03125 "/></g></g></g><g fill="#f2f1ec" fill-opacity="1"><g transform="translate(52.826093, 26.615588)"><g/></g></g><g fill="#f2f1ec" fill-opacity="1"><g transform="translate(53.883779, 26.615588)"><g><path d="M 1.15625 0.03125 C 0.957031 0.03125 0.78125 -0.0078125 0.625 -0.09375 C 0.46875 -0.1875 0.34375 -0.304688 0.25 -0.453125 C 0.164062 -0.597656 0.125 -0.769531 0.125 -0.96875 C 0.125 -1.15625 0.164062 -1.320312 0.25 -1.46875 C 0.34375 -1.625 0.46875 -1.742188 0.625 -1.828125 C 0.78125 -1.910156 0.957031 -1.953125 1.15625 -1.953125 C 1.3125 -1.953125 1.453125 -1.921875 1.578125 -1.859375 C 1.710938 -1.804688 1.820312 -1.726562 1.90625 -1.625 L 1.6875 -1.40625 C 1.539062 -1.5625 1.367188 -1.640625 1.171875 -1.640625 C 1.035156 -1.640625 0.914062 -1.609375 0.8125 -1.546875 C 0.707031 -1.492188 0.625 -1.414062 0.5625 -1.3125 C 0.507812 -1.207031 0.484375 -1.09375 0.484375 -0.96875 C 0.484375 -0.832031 0.507812 -0.710938 0.5625 -0.609375 C 0.625 -0.503906 0.707031 -0.421875 0.8125 -0.359375 C 0.914062 -0.304688 1.035156 -0.28125 1.171875 -0.28125 C 1.367188 -0.28125 1.539062 -0.359375 1.6875 -0.515625 L 1.90625 -0.296875 C 1.820312 -0.191406 1.710938 -0.109375 1.578125 -0.046875 C 1.453125 0.00390625 1.3125 0.03125 1.15625 0.03125 Z M 1.15625 0.03125 "/></g></g></g><g fill="#f2f1ec" fill-opacity="1"><g transform="translate(56.180219, 26.615588)"><g><path d="M 1.15625 0.03125 C 0.957031 0.03125 0.78125 -0.0078125 0.625 -0.09375 C 0.46875 -0.1875 0.34375 -0.304688 0.25 -0.453125 C 0.164062 -0.609375 0.125 -0.78125 0.125 -0.96875 C 0.125 -1.15625 0.164062 -1.320312 0.25 -1.46875 C 0.34375 -1.625 0.46875 -1.742188 0.625 -1.828125 C 0.78125 -1.910156 0.957031 -1.953125 1.15625 -1.953125 C 1.351562 -1.953125 1.53125 -1.910156 1.6875 -1.828125 C 1.84375 -1.742188 1.960938 -1.625 2.046875 -1.46875 C 2.140625 -1.320312 2.1875 -1.15625 2.1875 -0.96875 C 2.1875 -0.769531 2.140625 -0.597656 2.046875 -0.453125 C 1.960938 -0.304688 1.84375 -0.1875 1.6875 -0.09375 C 1.53125 -0.0078125 1.351562 0.03125 1.15625 0.03125 Z M 1.15625 -0.28125 C 1.28125 -0.28125 1.394531 -0.304688 1.5 -0.359375 C 1.601562 -0.421875 1.679688 -0.503906 1.734375 -0.609375 C 1.796875 -0.710938 1.828125 -0.832031 1.828125 -0.96875 C 1.828125 -1.09375 1.796875 -1.207031 1.734375 -1.3125 C 1.679688 -1.414062 1.601562 -1.492188 1.5 -1.546875 C 1.394531 -1.609375 1.28125 -1.640625 1.15625 -1.640625 C 1.03125 -1.640625 0.914062 -1.609375 0.8125 -1.546875 C 0.707031 -1.492188 0.625 -1.414062 0.5625 -1.3125 C 0.507812 -1.207031 0.484375 -1.09375 0.484375 -0.96875 C 0.484375 -0.832031 0.507812 -0.710938 0.5625 -0.609375 C 0.625 -0.503906 0.707031 -0.421875 0.8125 -0.359375 C 0.914062 -0.304688 1.03125 -0.28125 1.15625 -0.28125 Z M 1.15625 -0.28125 "/></g></g></g><g fill="#f2f1ec" fill-opacity="1"><g transform="translate(58.792525, 26.615588)"><g><path d="M 1.96875 -1.921875 L 1.96875 0 L 1.671875 0 L 0.609375 -1.296875 L 0.609375 0 L 0.265625 0 L 0.265625 -1.921875 L 0.546875 -1.921875 L 1.609375 -0.625 L 1.609375 -1.921875 Z M 1.96875 -1.921875 "/></g></g></g><g fill="#f2f1ec" fill-opacity="1"><g transform="translate(61.316939, 26.615588)"><g><path d="M 0.65625 -1.625 L 0.015625 -1.625 L 0.015625 -1.921875 L 1.640625 -1.921875 L 1.640625 -1.625 L 1 -1.625 L 1 0 L 0.65625 0 Z M 0.65625 -1.625 "/></g></g></g><g fill="#f2f1ec" fill-opacity="1"><g transform="translate(63.270042, 26.615588)"><g><path d="M 1.5 -0.453125 L 0.546875 -0.453125 L 0.359375 0 L -0.015625 0 L 0.859375 -1.921875 L 1.203125 -1.921875 L 2.078125 0 L 1.703125 0 Z M 1.390625 -0.71875 L 1.03125 -1.5625 L 0.671875 -0.71875 Z M 1.171875 -2.453125 L 1.578125 -2.453125 L 1.09375 -2.078125 L 0.796875 -2.078125 Z M 1.171875 -2.453125 "/></g></g></g><g fill="#f2f1ec" fill-opacity="1"><g transform="translate(65.626908, 26.615588)"><g><path d="M 1.625 -1 C 1.726562 -0.96875 1.8125 -0.910156 1.875 -0.828125 C 1.9375 -0.742188 1.96875 -0.640625 1.96875 -0.515625 C 1.96875 -0.347656 1.898438 -0.21875 1.765625 -0.125 C 1.640625 -0.0390625 1.457031 0 1.21875 0 L 0.265625 0 L 0.265625 -1.921875 L 1.15625 -1.921875 C 1.382812 -1.921875 1.5625 -1.875 1.6875 -1.78125 C 1.8125 -1.695312 1.875 -1.578125 1.875 -1.421875 C 1.875 -1.328125 1.847656 -1.242188 1.796875 -1.171875 C 1.753906 -1.097656 1.695312 -1.039062 1.625 -1 Z M 0.609375 -1.640625 L 0.609375 -1.109375 L 1.125 -1.109375 C 1.25 -1.109375 1.34375 -1.128906 1.40625 -1.171875 C 1.476562 -1.222656 1.515625 -1.289062 1.515625 -1.375 C 1.515625 -1.46875 1.476562 -1.535156 1.40625 -1.578125 C 1.34375 -1.617188 1.25 -1.640625 1.125 -1.640625 Z M 1.1875 -0.28125 C 1.46875 -0.28125 1.609375 -0.375 1.609375 -0.5625 C 1.609375 -0.75 1.46875 -0.84375 1.1875 -0.84375 L 0.609375 -0.84375 L 0.609375 -0.28125 Z M 1.1875 -0.28125 "/></g></g></g><g fill="#f2f1ec" fill-opacity="1"><g transform="translate(68.016733, 26.615588)"><g><path d="M 1.703125 -0.296875 L 1.703125 0 L 0.265625 0 L 0.265625 -1.921875 L 1.65625 -1.921875 L 1.65625 -1.625 L 0.609375 -1.625 L 0.609375 -1.125 L 1.546875 -1.125 L 1.546875 -0.828125 L 0.609375 -0.828125 L 0.609375 -0.296875 Z M 1.703125 -0.296875 "/></g></g></g><g fill="#f2f1ec" fill-opacity="1"><g transform="translate(70.15661, 26.615588)"><g><path d="M 0.265625 -1.921875 L 0.609375 -1.921875 L 0.609375 0 L 0.265625 0 Z M 0.265625 -1.921875 "/></g></g></g><g fill="#f2f1ec" fill-opacity="1"><g transform="translate(71.332404, 26.615588)"><g><path d="M 0.859375 0.03125 C 0.703125 0.03125 0.554688 0.0078125 0.421875 -0.03125 C 0.285156 -0.0703125 0.175781 -0.128906 0.09375 -0.203125 L 0.21875 -0.484375 C 0.300781 -0.421875 0.398438 -0.367188 0.515625 -0.328125 C 0.628906 -0.285156 0.742188 -0.265625 0.859375 -0.265625 C 0.992188 -0.265625 1.097656 -0.285156 1.171875 -0.328125 C 1.242188 -0.378906 1.28125 -0.441406 1.28125 -0.515625 C 1.28125 -0.578125 1.257812 -0.625 1.21875 -0.65625 C 1.175781 -0.6875 1.125 -0.710938 1.0625 -0.734375 C 1.007812 -0.753906 0.929688 -0.78125 0.828125 -0.8125 C 0.679688 -0.84375 0.5625 -0.875 0.46875 -0.90625 C 0.375 -0.945312 0.296875 -1.003906 0.234375 -1.078125 C 0.171875 -1.148438 0.140625 -1.25 0.140625 -1.375 C 0.140625 -1.476562 0.164062 -1.570312 0.21875 -1.65625 C 0.28125 -1.75 0.367188 -1.820312 0.484375 -1.875 C 0.597656 -1.925781 0.738281 -1.953125 0.90625 -1.953125 C 1.03125 -1.953125 1.148438 -1.9375 1.265625 -1.90625 C 1.378906 -1.875 1.472656 -1.832031 1.546875 -1.78125 L 1.4375 -1.5 C 1.351562 -1.550781 1.265625 -1.585938 1.171875 -1.609375 C 1.085938 -1.640625 1 -1.65625 0.90625 -1.65625 C 0.769531 -1.65625 0.664062 -1.628906 0.59375 -1.578125 C 0.53125 -1.535156 0.5 -1.472656 0.5 -1.390625 C 0.5 -1.335938 0.515625 -1.289062 0.546875 -1.25 C 0.585938 -1.21875 0.640625 -1.191406 0.703125 -1.171875 C 0.765625 -1.148438 0.847656 -1.128906 0.953125 -1.109375 C 1.085938 -1.078125 1.203125 -1.039062 1.296875 -1 C 1.390625 -0.96875 1.46875 -0.914062 1.53125 -0.84375 C 1.601562 -0.769531 1.640625 -0.671875 1.640625 -0.546875 C 1.640625 -0.441406 1.609375 -0.34375 1.546875 -0.25 C 1.484375 -0.164062 1.394531 -0.0976562 1.28125 -0.046875 C 1.164062 0.00390625 1.023438 0.03125 0.859375 0.03125 Z M 0.859375 0.03125 "/></g></g></g></svg>